<svg width="64" height="64" viewBox="0 0 64 64" fill="none" xmlns="http://www.w3.org/2000/svg">
<rect width="64" height="64" rx="32" fill="#1F2732"/>
<rect x="8" y="8" width="48" height="48" rx="9.62092" fill="#1F2732"/>
<path d="M34.4575 24.8366H29.6471C26.9903 24.8366 24.8366 26.9903 24.8366 29.647V34.4575C24.8366 37.1142 26.9903 39.268 29.6471 39.268H34.4575C37.1143 39.268 39.268 37.1142 39.268 34.4575V29.647C39.268 26.9903 37.1143 24.8366 34.4575 24.8366Z" stroke="white" stroke-width="2.40523" stroke-linecap="round"/>
<path d="M29.6471 34.4572V34.4572C30.9755 35.7855 33.1292 35.7855 34.4575 34.4572V34.4572" stroke="#D1B06B" stroke-width="2.40523" stroke-linecap="round"/>
<path d="M29.6471 30.8495C29.6471 31.5137 29.1087 32.0521 28.4445 32.0521C27.7803 32.0521 27.2419 31.5137 27.2419 30.8495C27.2419 30.1853 27.7803 29.6469 28.4445 29.6469C29.1087 29.6469 29.6471 30.1853 29.6471 30.8495Z" fill="#D1B06B"/>
<path d="M36.8628 30.8495C36.8628 31.5137 36.3243 32.0521 35.6602 32.0521C34.996 32.0521 34.4575 31.5137 34.4575 30.8495C34.4575 30.1853 34.996 29.6469 35.6602 29.6469C36.3243 29.6469 36.8628 30.1853 36.8628 30.8495Z" fill="#D1B06B"/>
<path d="M34.4575 42.8755C33.7933 42.8755 33.2549 43.4139 33.2549 44.0781C33.2549 44.7423 33.7933 45.2807 34.4575 45.2807V42.8755ZM22.4314 36.8624V38.065H23.634V36.8624H22.4314ZM40.4706 36.8624C40.4706 40.1833 37.7785 42.8755 34.4575 42.8755V45.2807C39.1068 45.2807 42.8758 41.5117 42.8758 36.8624H40.4706ZM21.2288 27.2415V36.8624H23.634V27.2415H21.2288ZM22.4314 35.6598C20.4388 35.6598 18.8235 34.0445 18.8235 32.052H16.4183C16.4183 35.3729 19.1105 38.065 22.4314 38.065V35.6598ZM22.4314 26.0389C19.1105 26.0389 16.4183 28.731 16.4183 32.052H18.8235C18.8235 30.0594 20.4388 28.4441 22.4314 28.4441V26.0389ZM42.8758 36.8624V27.2415H40.4706V36.8624H42.8758ZM45.2811 32.052C45.2811 34.0445 43.6658 35.6598 41.6732 35.6598V38.065C44.9941 38.065 47.6863 35.3729 47.6863 32.052H45.2811ZM41.6732 28.4441C43.6658 28.4441 45.2811 30.0594 45.2811 32.052H47.6863C47.6863 28.731 44.9941 26.0389 41.6732 26.0389V28.4441ZM29.6471 21.2284H34.4575V18.8232H29.6471V21.2284ZM34.4575 21.2284C37.7785 21.2284 40.4706 23.9206 40.4706 27.2415H42.8758C42.8758 22.5922 39.1068 18.8232 34.4575 18.8232V21.2284ZM23.634 27.2415C23.634 23.9206 26.3261 21.2284 29.6471 21.2284V18.8232C24.9978 18.8232 21.2288 22.5922 21.2288 27.2415H23.634Z" fill="#D1B06B"/>
<rect x="29.6471" y="41.6733" width="4.81046" height="4.81046" rx="2.40523" fill="#D1B06B"/>
</svg>
