<svg width="40" height="40" viewBox="0 0 40 40" fill="none" xmlns="http://www.w3.org/2000/svg">
<rect width="40" height="40" rx="20" fill="#D1B06B"/>
<path d="M17.55 23.15L26.025 14.675C26.225 14.475 26.4583 14.375 26.725 14.375C26.9917 14.375 27.225 14.475 27.425 14.675C27.625 14.875 27.725 15.1125 27.725 15.3875C27.725 15.6625 27.625 15.9 27.425 16.1L18.25 25.3C18.05 25.5 17.8167 25.6 17.55 25.6C17.2833 25.6 17.05 25.5 16.85 25.3L12.55 21C12.35 20.8 12.2542 20.5625 12.2625 20.2875C12.2708 20.0125 12.375 19.775 12.575 19.575C12.775 19.375 13.0125 19.275 13.2875 19.275C13.5625 19.275 13.8 19.375 14 19.575L17.55 23.15Z" fill="white"/>
</svg>
