<svg width="52" height="52" viewBox="0 0 52 52" fill="none" xmlns="http://www.w3.org/2000/svg">
<rect width="52" height="52" rx="26" fill="#1F2732"/>
<mask id="path-2-inside-1_2_566" fill="white">
<path d="M8.00001 28.4073C8.00001 30.7059 8.76883 32.9103 10.1373 34.5356C11.5058 36.1609 13.3619 37.074 15.2973 37.074C17.2327 37.074 19.0888 36.1609 20.4573 34.5356C21.8258 32.9103 22.5946 30.7059 22.5946 28.4073L15.2973 28.4073L8.00001 28.4073Z"/>
</mask>
<path d="M8.00001 28.4073C8.00001 30.7059 8.76883 32.9103 10.1373 34.5356C11.5058 36.1609 13.3619 37.074 15.2973 37.074C17.2327 37.074 19.0888 36.1609 20.4573 34.5356C21.8258 32.9103 22.5946 30.7059 22.5946 28.4073L15.2973 28.4073L8.00001 28.4073Z" fill="white" stroke="white" stroke-width="2" mask="url(#path-2-inside-1_2_566)"/>
<mask id="path-3-inside-2_2_566" fill="white">
<path d="M29.4054 28.4073C29.4054 30.7059 30.1742 32.9103 31.5427 34.5356C32.9112 36.1609 34.7673 37.074 36.7027 37.074C38.6381 37.074 40.4942 36.1609 41.8627 34.5356C43.2312 32.9103 44 30.7059 44 28.4073L36.7027 28.4073L29.4054 28.4073Z"/>
</mask>
<path d="M29.4054 28.4073C29.4054 30.7059 30.1742 32.9103 31.5427 34.5356C32.9112 36.1609 34.7673 37.074 36.7027 37.074C38.6381 37.074 40.4942 36.1609 41.8627 34.5356C43.2312 32.9103 44 30.7059 44 28.4073L36.7027 28.4073L29.4054 28.4073Z" fill="white" stroke="white" stroke-width="2" mask="url(#path-3-inside-2_2_566)"/>
<path d="M8.97296 28.4074L14.4201 18.4546C14.7995 17.7614 15.7951 17.7614 16.1745 18.4546L21.6216 28.4074" stroke="white" stroke-width="2" stroke-linecap="round"/>
<path d="M30.3784 28.4074L35.8255 18.4546C36.2049 17.7614 37.2005 17.7614 37.5799 18.4546L43.027 28.4074" stroke="white" stroke-width="2" stroke-linecap="round"/>
<line x1="14.3649" y1="16.3147" x2="37.6351" y2="16.3147" stroke="white" stroke-width="3" stroke-linecap="round"/>
<line x1="25.9595" y1="37.5" x2="25.9595" y2="14.5" stroke="white" stroke-width="3" stroke-linecap="round"/>
</svg>
