<svg width="53" height="52" viewBox="0 0 53 52" fill="none" xmlns="http://www.w3.org/2000/svg">
<rect x="0.333313" width="52" height="52" rx="26" fill="#1F2732"/>
<path d="M26.3333 40.4876C25.9833 40.4876 25.6271 40.4251 25.2646 40.3001C24.9021 40.1751 24.5833 39.9751 24.3083 39.7001L21.7208 37.3376C19.0708 34.9126 16.6771 32.5063 14.5396 30.1188C12.4021 27.7313 11.3333 25.1001 11.3333 22.2251C11.3333 19.8751 12.1208 17.9126 13.6958 16.3376C15.2708 14.7626 17.2333 13.9751 19.5833 13.9751C20.9083 13.9751 22.1583 14.2563 23.3333 14.8188C24.5083 15.3813 25.5083 16.1501 26.3333 17.1251C27.1583 16.1501 28.1583 15.3813 29.3333 14.8188C30.5083 14.2563 31.7583 13.9751 33.0833 13.9751C35.4333 13.9751 37.3958 14.7626 38.9708 16.3376C40.5458 17.9126 41.3333 19.8751 41.3333 22.2251C41.3333 25.1001 40.2708 27.7376 38.1458 30.1376C36.0208 32.5376 33.6083 34.9501 30.9083 37.3751L28.3583 39.7001C28.0833 39.9751 27.7646 40.1751 27.4021 40.3001C27.0396 40.4251 26.6833 40.4876 26.3333 40.4876Z" fill="white"/>
</svg>
