<svg width="64" height="64" viewBox="0 0 64 64" fill="none" xmlns="http://www.w3.org/2000/svg">
<circle cx="32" cy="32" r="32" fill="#1F2732"/>
<path d="M30.7629 23.1885L26.1317 32.0126L23.2135 32.8561C23.5518 32.2073 23.9325 31.6882 24.3554 31.2989C24.7783 30.8664 25.2647 30.6501 25.8145 30.6501C27.0411 30.6501 28.1407 31.1692 29.1135 32.2073C30.1285 33.2022 30.636 34.4998 30.636 36.1003C30.636 37.7872 30.0651 39.2363 28.9231 40.4474C27.8235 41.6586 26.4489 42.2642 24.7995 42.2642C23.2346 42.2642 21.8601 41.6802 20.6759 40.5123C19.5339 39.3012 18.963 37.8305 18.963 36.1003C18.963 35.4082 19.0898 34.608 19.3436 33.6996C19.6397 32.7912 20.1683 31.6017 20.9296 30.131L26.0049 20.5283L30.7629 23.1885ZM45.037 23.1885L40.4059 32.0126L37.551 32.8561C37.8471 32.2073 38.2066 31.6882 38.6295 31.2989C39.0948 30.8664 39.5811 30.6501 40.0887 30.6501C41.3152 30.6501 42.436 31.1692 43.451 32.2073C44.4661 33.2022 44.9736 34.4998 44.9736 36.1003C44.9736 37.7872 44.4026 39.2363 43.2607 40.4474C42.1611 41.6586 40.7865 42.2642 39.1371 42.2642C37.5722 42.2642 36.1976 41.6802 35.0134 40.5123C33.8715 39.3012 33.3005 37.8305 33.3005 36.1003C33.3005 35.4082 33.4274 34.608 33.6812 33.6996C33.9349 32.7912 34.4425 31.6017 35.2037 30.131L40.3424 20.5283L45.037 23.1885Z" fill="#D1B06B"/>
</svg>
