<svg width="64" height="64" viewBox="0 0 64 64" fill="none" xmlns="http://www.w3.org/2000/svg">
<rect width="64" height="64" rx="32" fill="#1F2732"/>
<rect x="8" y="8" width="48" height="48" rx="9.6" fill="#1F2732"/>
<path d="M27.2 22.4671V28.4793L23.6283 29.438C22.8233 29.654 21.9767 29.654 21.1717 29.438L17.6 28.4793V22.4671M15.2 21.2503L22.4 17.6L29.6 21.2503L22.4 24.9006L15.2 21.2503Z" stroke="white" stroke-width="2.4" stroke-linecap="round" stroke-linejoin="round"/>
<path d="M44 39.2V27.2C44 24.549 41.8509 22.4 39.2 22.4L32 22.4M44 39.2L20 39.2M44 39.2C45.3255 39.2 46.4 40.2745 46.4 41.6C46.4 42.9255 45.3255 44 44 44L20 44C18.6745 44 17.6 42.9255 17.6 41.6C17.6 40.2745 18.6745 39.2 20 39.2M20 39.2L20 34.4M24.8 34.4H27.2M34.4 34.4H36.8C38.1255 34.4 39.2 33.3255 39.2 32V29.6C39.2 28.2745 38.1255 27.2 36.8 27.2H34.4C33.0745 27.2 32 28.2745 32 29.6V32C32 33.3255 33.0745 34.4 34.4 34.4Z" stroke="#D1B06B" stroke-width="2.4" stroke-linecap="round"/>
</svg>
