<svg width="64" height="64" viewBox="0 0 64 64" fill="none" xmlns="http://www.w3.org/2000/svg">
<rect width="64" height="64" rx="32" fill="#1F2732"/>
<rect x="8" y="8" width="48" height="48" rx="9.62092" fill="#1F2732"/>
<path fill-rule="evenodd" clip-rule="evenodd" d="M24.8366 34.4575C24.8366 35.7858 23.7598 36.8627 22.4314 36.8627C21.103 36.8627 20.0262 35.7858 20.0262 34.4575C20.0262 33.1291 21.103 32.0522 22.4314 32.0522C23.7598 32.0522 24.8366 33.1291 24.8366 34.4575ZM24.8935 38.591C26.2999 37.7514 27.2418 36.2144 27.2418 34.4575C27.2418 31.8007 25.0881 29.647 22.4314 29.647C19.7747 29.647 17.6209 31.8007 17.6209 34.4575C17.6209 36.2144 18.5629 37.7514 19.9693 38.591C17.876 39.5316 16.4183 41.6348 16.4183 44.0785V45.7161C16.4183 46.8043 17.3004 47.6864 18.3886 47.6864H26.4742C27.5624 47.6864 28.4445 46.8042 28.4445 45.7161V44.0785C28.4445 41.6348 26.9868 39.5316 24.8935 38.591ZM18.8235 44.0785C18.8235 42.086 20.4388 40.4707 22.4314 40.4707C24.4239 40.4707 26.0392 42.086 26.0392 44.0785V45.2811H18.8235V44.0785Z" fill="#D1B06B"/>
<path d="M34.4575 46.4836L38.1923 39.014C38.6355 38.1276 39.9004 38.1276 40.3436 39.014L44.0785 46.4836M39.268 22.4313H41.6732C44.33 22.4313 46.4837 24.5851 46.4837 27.2418V32.0523C46.4837 34.709 44.33 36.8627 41.6732 36.8627H36.8628C34.206 36.8627 32.0523 34.709 32.0523 32.0523V29.647" stroke="#D1B06B" stroke-width="2.40523" stroke-linecap="round"/>
<path d="M36.8628 27.2416H41.6732M36.8628 32.0521H41.6732" stroke="white" stroke-width="2.40523" stroke-linecap="round"/>
<path d="M17.6209 20.0261C17.6209 17.3694 19.7746 15.2157 22.4314 15.2157H29.6471C32.3038 15.2157 34.4575 17.3694 34.4575 20.0261V20.0261C34.4575 22.6829 32.3038 24.8366 29.6471 24.8366H29.2344C27.9586 24.8366 26.735 25.3434 25.8329 26.2455L24.8366 27.2418L23.015 25.4202C22.6413 25.0465 22.1345 24.8366 21.606 24.8366V24.8366C19.4051 24.8366 17.6209 23.0524 17.6209 20.8515V20.0261Z" stroke="white" stroke-width="2.40523" stroke-linecap="round" stroke-linejoin="round"/>
</svg>
