<svg width="120" height="48" viewBox="0 0 120 48" fill="none" xmlns="http://www.w3.org/2000/svg">
<rect width="120" height="48" rx="8" fill="#EEEFF0"/>
<path d="M49.88 29V18.92H45.64L45.576 21.176C45.5227 22.7227 45.4053 24.008 45.224 25.032C45.0533 26.0453 44.8027 26.8453 44.472 27.432C44.152 28.008 43.752 28.4187 43.272 28.664C42.792 28.9093 42.2213 29.032 41.56 29.032V27.768C41.9653 27.768 42.3227 27.6667 42.632 27.464C42.9413 27.2613 43.2027 26.9093 43.416 26.408C43.64 25.896 43.816 25.1867 43.944 24.28C44.072 23.3733 44.1573 22.216 44.2 20.808L44.296 17.64H51.32V29H49.88ZM57.4715 29.16C56.8422 29.16 56.2715 29.048 55.7595 28.824C55.2475 28.5893 54.8048 28.2747 54.4315 27.88C54.0582 27.4747 53.7702 27.0107 53.5675 26.488C53.3648 25.9653 53.2635 25.416 53.2635 24.84C53.2635 24.2533 53.3648 23.6987 53.5675 23.176C53.7702 22.6533 54.0582 22.1947 54.4315 21.8C54.8048 21.3947 55.2475 21.08 55.7595 20.856C56.2822 20.6213 56.8528 20.504 57.4715 20.504C58.1008 20.504 58.6715 20.6213 59.1835 20.856C59.6955 21.08 60.1382 21.3947 60.5115 21.8C60.8955 22.1947 61.1888 22.6533 61.3915 23.176C61.5942 23.6987 61.6955 24.2533 61.6955 24.84C61.6955 25.416 61.5942 25.9653 61.3915 26.488C61.1888 27.0107 60.9008 27.4747 60.5275 27.88C60.1542 28.2747 59.7062 28.5893 59.1835 28.824C58.6715 29.048 58.1008 29.16 57.4715 29.16ZM54.7035 24.856C54.7035 25.432 54.8262 25.9547 55.0715 26.424C55.3275 26.8933 55.6635 27.2667 56.0795 27.544C56.4955 27.8107 56.9595 27.944 57.4715 27.944C57.9835 27.944 58.4475 27.8053 58.8635 27.528C59.2902 27.2507 59.6262 26.8773 59.8715 26.408C60.1275 25.928 60.2555 25.4 60.2555 24.824C60.2555 24.248 60.1275 23.7253 59.8715 23.256C59.6262 22.7867 59.2902 22.4133 58.8635 22.136C58.4475 21.8587 57.9835 21.72 57.4715 21.72C56.9595 21.72 56.4955 21.864 56.0795 22.152C55.6635 22.4293 55.3275 22.8027 55.0715 23.272C54.8262 23.7413 54.7035 24.2693 54.7035 24.856ZM63.3856 29V20.648H68.5376V21.896H64.7936V29H63.3856ZM73.6278 29.16C72.9984 29.16 72.4278 29.048 71.9158 28.824C71.4038 28.5893 70.9611 28.2747 70.5878 27.88C70.2144 27.4747 69.9264 27.0107 69.7238 26.488C69.5211 25.9653 69.4198 25.416 69.4198 24.84C69.4198 24.2533 69.5211 23.6987 69.7238 23.176C69.9264 22.6533 70.2144 22.1947 70.5878 21.8C70.9611 21.3947 71.4038 21.08 71.9158 20.856C72.4384 20.6213 73.0091 20.504 73.6278 20.504C74.2571 20.504 74.8278 20.6213 75.3398 20.856C75.8518 21.08 76.2944 21.3947 76.6678 21.8C77.0518 22.1947 77.3451 22.6533 77.5478 23.176C77.7504 23.6987 77.8518 24.2533 77.8518 24.84C77.8518 25.416 77.7504 25.9653 77.5478 26.488C77.3451 27.0107 77.0571 27.4747 76.6838 27.88C76.3104 28.2747 75.8624 28.5893 75.3398 28.824C74.8278 29.048 74.2571 29.16 73.6278 29.16ZM70.8598 24.856C70.8598 25.432 70.9824 25.9547 71.2278 26.424C71.4838 26.8933 71.8198 27.2667 72.2358 27.544C72.6518 27.8107 73.1158 27.944 73.6278 27.944C74.1398 27.944 74.6038 27.8053 75.0198 27.528C75.4464 27.2507 75.7824 26.8773 76.0278 26.408C76.2838 25.928 76.4118 25.4 76.4118 24.824C76.4118 24.248 76.2838 23.7253 76.0278 23.256C75.7824 22.7867 75.4464 22.4133 75.0198 22.136C74.6038 21.8587 74.1398 21.72 73.6278 21.72C73.1158 21.72 72.6518 21.864 72.2358 22.152C71.8198 22.4293 71.4838 22.8027 71.2278 23.272C70.9824 23.7413 70.8598 24.2693 70.8598 24.856Z" fill="black"/>
</svg>
