<svg width="64" height="64" viewBox="0 0 64 64" fill="none" xmlns="http://www.w3.org/2000/svg">
<rect width="64" height="64" rx="32" fill="#1F2732"/>
<rect x="8" y="8" width="48" height="48" rx="9.62092" fill="#1F2732"/>
<path d="M39.2679 24.8366L46.4836 17.6209M46.4836 17.6209H41.6732M46.4836 17.6209V22.4314" stroke="white" stroke-width="2.40523" stroke-linecap="round" stroke-linejoin="round"/>
<rect x="17.6209" y="22.4312" width="4.81046" height="16.8366" rx="2.40523" stroke="white" stroke-width="2.40523" stroke-linejoin="round"/>
<path d="M32.0523 28.4444V20.0261C32.0523 18.6978 30.9754 17.6209 29.6471 17.6209C28.3187 17.6209 27.2418 18.6978 27.2418 20.0261V39.268M17.6209 44.0784H27.2418M46.4837 36.8627C46.4837 38.2899 46.0605 39.685 45.2676 40.8716C44.4747 42.0582 43.3478 42.983 42.0293 43.5292C40.7108 44.0753 39.26 44.2182 37.8603 43.9398C36.4606 43.6614 35.1748 42.9741 34.1657 41.965C33.1566 40.9559 32.4694 39.6702 32.1909 38.2705C31.9125 36.8708 32.0554 35.4199 32.6015 34.1014C33.1477 32.7829 34.0725 31.656 35.2591 30.8631C36.4458 30.0703 37.8408 29.6471 39.268 29.6471V36.8627H46.4837Z" stroke="#D1B06B" stroke-width="2.40523" stroke-linecap="round" stroke-linejoin="round"/>
</svg>
