<svg width="53" height="52" viewBox="0 0 53 52" fill="none" xmlns="http://www.w3.org/2000/svg">
<rect x="0.666672" width="52" height="52" rx="26" fill="#1F2732"/>
<path d="M25.0917 27.0501L22.9917 24.9501C22.6917 24.6501 22.3417 24.5001 21.9417 24.5001C21.5417 24.5001 21.1917 24.6501 20.8917 24.9501C20.5917 25.2501 20.4417 25.6063 20.4417 26.0188C20.4417 26.4313 20.5917 26.7876 20.8917 27.0876L24.0417 30.2751C24.3417 30.5751 24.6917 30.7251 25.0917 30.7251C25.4917 30.7251 25.8417 30.5751 26.1417 30.2751L32.5167 23.9001C32.8167 23.6001 32.9667 23.2438 32.9667 22.8313C32.9667 22.4188 32.8167 22.0626 32.5167 21.7626C32.2167 21.4626 31.8604 21.3126 31.4479 21.3126C31.0354 21.3126 30.6792 21.4626 30.3792 21.7626L25.0917 27.0501ZM26.6667 40.8501C26.4917 40.8501 26.3292 40.8376 26.1792 40.8126C26.0292 40.7876 25.8792 40.7501 25.7292 40.7001C22.3542 39.5751 19.6667 37.4938 17.6667 34.4563C15.6667 31.4188 14.6667 28.1501 14.6667 24.6501V17.5626C14.6667 16.9376 14.8479 16.3751 15.2104 15.8751C15.5729 15.3751 16.0417 15.0126 16.6167 14.7876L25.6167 11.4126C25.9667 11.2876 26.3167 11.2251 26.6667 11.2251C27.0167 11.2251 27.3667 11.2876 27.7167 11.4126L36.7167 14.7876C37.2917 15.0126 37.7604 15.3751 38.1229 15.8751C38.4854 16.3751 38.6667 16.9376 38.6667 17.5626V24.6501C38.6667 28.1501 37.6667 31.4188 35.6667 34.4563C33.6667 37.4938 30.9792 39.5751 27.6042 40.7001C27.4542 40.7501 27.3042 40.7876 27.1542 40.8126C27.0042 40.8376 26.8417 40.8501 26.6667 40.8501Z" fill="white"/>
</svg>
