<svg width="64" height="64" viewBox="0 0 64 64" fill="none" xmlns="http://www.w3.org/2000/svg">
<rect width="64" height="64" rx="32" fill="#1F2732"/>
<rect x="8" y="8" width="48" height="48" rx="9.62092" fill="#1F2732"/>
<path d="M46.4837 32.0523V27.2418C46.4837 24.5851 44.3299 22.4313 41.6732 22.4313H32.0523M17.6209 32.0523V36.8627C17.6209 39.5195 19.7746 41.6732 22.4314 41.6732L32.0523 41.6732M24.8366 34.4575H29.6471M32.0523 29.647H41.6732" stroke="#D1B06B" stroke-width="2.40523" stroke-linecap="round"/>
<path d="M16.171 23.1892C14.8972 21.9154 14.8972 19.8502 16.171 18.5764C17.4448 17.3026 19.5101 17.3026 20.7839 18.5764L25.3876 23.1801C26.2312 24.0237 26.7603 25.1308 26.8868 26.3171L27.2418 29.6472L23.9117 29.2921C22.7255 29.1656 21.6183 28.6365 20.7748 27.793L16.171 23.1892Z" stroke="#D1B06B" stroke-width="2.40523" stroke-linecap="round" stroke-linejoin="round"/>
<path d="M46.4837 39.3349V45.3603L42.9042 46.321C42.0974 46.5376 41.249 46.5376 40.4422 46.321L36.8627 45.3603V39.3349M34.4575 38.1155L41.6732 34.4573L48.8889 38.1155L41.6732 41.7738L34.4575 38.1155Z" stroke="white" stroke-width="2.40523" stroke-linecap="round" stroke-linejoin="round"/>
</svg>
