<svg width="41" height="40" viewBox="0 0 41 40" fill="none" xmlns="http://www.w3.org/2000/svg">
<path d="M20.3333 40C31.379 40 40.3333 31.0457 40.3333 20C40.3333 8.9543 31.379 0 20.3333 0C9.28762 0 0.333313 8.9543 0.333313 20C0.333313 31.0457 9.28762 40 20.3333 40Z" fill="url(#paint0_linear_2_502)"/>
<path d="M16.6667 29.1663C16.0187 29.1663 16.1288 28.9217 15.9054 28.3048L14 22.034L28.6667 13.333" fill="#C8DAEA"/>
<path d="M16.6666 29.1662C17.1666 29.1662 17.3875 28.9375 17.6666 28.6662L20.3333 26.0732L17.007 24.0674" fill="#A9C9DD"/>
<path d="M17.0067 24.0686L25.0667 30.0234C25.9864 30.5309 26.6502 30.2681 26.8793 29.1695L30.1602 13.709C30.4961 12.3623 29.6468 11.7515 28.7669 12.1509L9.50192 19.5794C8.18691 20.1069 8.19457 20.8405 9.26222 21.1674L14.2061 22.7105L25.6516 15.4897C26.1919 15.162 26.6878 15.3382 26.2808 15.6994" fill="url(#paint1_linear_2_502)"/>
<defs>
<linearGradient id="paint0_linear_2_502" x1="15.3353" y1="1.668" x2="5.33531" y2="25" gradientUnits="userSpaceOnUse">
<stop stop-color="#37AEE2"/>
<stop offset="1" stop-color="#1E96C8"/>
</linearGradient>
<linearGradient id="paint1_linear_2_502" x1="17.8297" y1="21.2288" x2="19.9666" y2="28.1412" gradientUnits="userSpaceOnUse">
<stop stop-color="#EFF7FC"/>
<stop offset="1" stop-color="white"/>
</linearGradient>
</defs>
</svg>
