<svg width="41" height="40" viewBox="0 0 41 40" fill="none" xmlns="http://www.w3.org/2000/svg">
<path d="M20.6667 0C31.7124 0 40.6667 8.95431 40.6667 20C40.6667 31.0457 31.7124 40 20.6667 40C9.62099 40 0.666687 31.0457 0.666687 20C0.666687 8.95431 9.62099 0 20.6667 0Z" fill="#7F4DA0"/>
<path d="M25.9951 17.4654C25.8978 16.6751 25.6549 16.0546 25.2236 15.505C24.6635 14.7973 23.9477 14.3735 22.888 14.1221C22.1973 13.9545 21.9183 13.9737 21.6685 14.2019C21.4358 14.4157 21.3904 14.8442 21.5682 15.1217C21.6933 15.3231 21.8375 15.3953 22.2387 15.474C22.773 15.5723 23.1422 15.6999 23.478 15.8919C24.1909 16.3036 24.5229 16.9477 24.5584 17.9905C24.575 18.4801 24.6173 18.6306 24.7883 18.8043C25.1053 19.1217 25.6694 19.06 25.9087 18.6801C25.9965 18.5369 26.0099 18.4746 26.0191 18.1421C26.0252 17.9363 26.0164 17.6299 25.9951 17.4654Z" fill="white"/>
<path d="M28.7872 18.3561C28.6464 15.935 27.6994 13.987 26.0046 12.6165C25.0497 11.8464 23.8955 11.3169 22.6303 11.0594C22.1668 10.9673 21.3135 10.8926 21.1671 10.9353C21.0289 10.9749 20.8336 11.1244 20.7465 11.2597C20.6544 11.4064 20.6336 11.7339 20.7122 11.9233C20.839 12.24 21.0749 12.3519 21.7355 12.4097C22.7539 12.4988 23.8043 12.8566 24.598 13.3863C25.5041 13.9894 26.2244 14.8143 26.6904 15.7837C27.093 16.6165 27.3406 17.8168 27.3337 18.8916C27.3315 19.2803 27.3915 19.4999 27.5478 19.6604C27.7838 19.9072 28.1278 19.9611 28.4313 19.7972C28.7678 19.6203 28.8464 19.3097 28.7872 18.3561Z" fill="white"/>
<path d="M31.8769 27.6802C31.8295 27.5418 31.719 27.3284 31.64 27.2058C31.1427 26.4548 28.4704 24.3635 27.1362 23.6795C26.3744 23.2882 25.81 23.1578 25.3916 23.2803C24.9416 23.4068 24.7047 23.6163 23.9508 24.5532C23.6469 24.9288 23.3351 25.2806 23.2522 25.3359C23.0469 25.4783 22.6443 25.593 22.3601 25.593C21.7009 25.5889 20.5049 25.162 19.5852 24.6006C18.8707 24.1658 17.955 23.3871 17.2524 22.6162C16.4234 21.7109 15.859 20.9123 15.4129 20.011C14.8367 18.8527 14.6906 18.1451 14.9314 17.6272C14.9906 17.4967 15.0696 17.3584 15.105 17.3149C15.1406 17.2754 15.5116 16.9709 15.9221 16.6389C16.7274 15.9985 16.8576 15.8522 17.0076 15.4134C17.1971 14.856 17.1458 14.2867 16.8537 13.7135C16.6287 13.2786 16.0405 12.3299 15.6143 11.7171C15.0498 10.9107 13.6446 9.18711 13.3643 8.95381C12.8591 8.54272 12.2118 8.47151 11.4972 8.74829C10.7434 9.04084 9.33024 10.1794 8.72629 10.974C8.18157 11.6934 7.97244 12.2034 7.94083 12.8754C7.91321 13.4288 7.96056 13.6581 8.25267 14.3658C10.5381 19.9161 13.9485 24.3476 18.6339 27.866C21.0812 29.7043 23.6192 31.1037 26.2521 32.0604C27.7875 32.6178 28.4546 32.6455 29.2401 32.1869C29.5717 31.9892 30.3927 31.1472 30.8506 30.5345C31.6084 29.5145 31.8887 29.0441 31.9676 28.6685C32.0229 28.4116 31.9795 27.9649 31.8769 27.6802Z" fill="white"/>
<path d="M31.6296 18.9127C31.579 17.5432 31.3485 16.4199 30.8677 15.1674C30.3929 13.9354 29.9125 13.1315 29.0052 12.0441C28.1474 11.0246 27.4811 10.4425 26.4244 9.79451C24.9502 8.89168 23.156 8.29423 21.1454 8.04296C20.4597 7.95514 20.3045 7.96142 20.0942 8.10178C19.6865 8.36769 19.692 9.03092 20.1009 9.29284C20.2363 9.37615 20.3564 9.40651 20.9049 9.4783C21.7469 9.59165 22.2883 9.69849 22.9307 9.87377C25.4499 10.5624 27.3871 11.97 28.6823 14.0596C29.7661 15.8012 30.216 17.543 30.1522 19.7676C30.1299 20.5196 30.1461 20.652 30.261 20.8327C30.4812 21.1695 31.0618 21.2361 31.3596 20.9566C31.5449 20.7863 31.5799 20.6584 31.6164 20.0148C31.6339 19.679 31.6376 19.1833 31.6296 18.9127Z" fill="white"/>
</svg>
