<svg width="40" height="40" viewBox="0 0 40 40" fill="none" xmlns="http://www.w3.org/2000/svg">
<path d="M20 40C31.0457 40 40 31.0457 40 20C40 8.9543 31.0457 0 20 0C8.9543 0 0 8.9543 0 20C0 31.0457 8.9543 40 20 40Z" fill="#25D366"/>
<path fill-rule="evenodd" clip-rule="evenodd" d="M20.6593 31.1268H20.6544C18.664 31.1261 16.7083 30.6267 14.9712 29.6792L8.66675 31.333L10.3539 25.1704C9.31319 23.3668 8.76556 21.3209 8.76646 19.2249C8.76907 12.6678 14.1041 7.33301 20.6592 7.33301C23.8406 7.33438 26.8266 8.5729 29.0719 10.8209C31.3172 13.0687 32.5531 16.0566 32.5519 19.2343C32.5492 25.7899 27.2163 31.1241 20.6593 31.1268ZM15.2633 27.5262L15.6243 27.7405C17.1419 28.6411 18.8816 29.1176 20.6553 29.1183H20.6593C26.1075 29.1183 30.5417 24.684 30.5439 19.2336C30.5449 16.5923 29.5177 14.1089 27.6515 12.2405C25.7852 10.3721 23.3034 9.34262 20.6632 9.3417C15.2109 9.3417 10.7766 13.7756 10.7744 19.2256C10.7736 21.0933 11.2962 22.9123 12.2857 24.486L12.5207 24.86L11.5222 28.5076L15.2633 27.5262ZM26.2438 21.7943C26.451 21.8945 26.591 21.9621 26.6507 22.0619C26.725 22.1858 26.725 22.7808 26.4775 23.475C26.2298 24.1691 25.0426 24.8026 24.4716 24.8879C23.9597 24.9644 23.3119 24.9964 22.6 24.7701C22.1684 24.6332 21.615 24.4504 20.906 24.1442C18.1202 22.9413 16.2376 20.2413 15.8818 19.731C15.8569 19.6952 15.8394 19.6702 15.8297 19.6572L15.8273 19.654C15.67 19.4442 14.6163 18.0383 14.6163 16.5833C14.6163 15.2145 15.2887 14.497 15.5982 14.1668C15.6194 14.1442 15.6389 14.1234 15.6564 14.1043C15.9287 13.8068 16.2507 13.7324 16.4488 13.7324C16.6468 13.7324 16.8452 13.7343 17.0183 13.7429C17.0397 13.744 17.0619 13.7439 17.0849 13.7438C17.258 13.7427 17.4739 13.7415 17.6869 14.253C17.7688 14.4499 17.8887 14.7418 18.0152 15.0497C18.2709 15.6722 18.5534 16.3599 18.6031 16.4595C18.6774 16.6082 18.7269 16.7817 18.6278 16.9801C18.613 17.0098 18.5992 17.0379 18.5861 17.0647C18.5117 17.2166 18.457 17.3283 18.3307 17.4758C18.281 17.5337 18.2297 17.5962 18.1784 17.6587C18.0762 17.7832 17.974 17.9077 17.885 17.9964C17.7362 18.1446 17.5813 18.3053 17.7547 18.6028C17.928 18.9003 18.5244 19.8734 19.4078 20.6614C20.3574 21.5084 21.1827 21.8664 21.601 22.0478C21.6827 22.0833 21.7489 22.112 21.7975 22.1363C22.0945 22.2851 22.2679 22.2602 22.4412 22.0619C22.6146 21.8636 23.184 21.1942 23.3821 20.8967C23.5802 20.5993 23.7784 20.6489 24.0507 20.748C24.3231 20.8473 25.7841 21.5661 26.0812 21.7148C26.1392 21.7438 26.1935 21.77 26.2438 21.7943Z" fill="#FDFDFD"/>
</svg>
