<svg width="64" height="64" viewBox="0 0 64 64" fill="none" xmlns="http://www.w3.org/2000/svg">
<rect width="64" height="64" rx="32" fill="#1F2732"/>
<rect x="8" y="8" width="48" height="48" rx="9.62092" fill="#1F2732"/>
<path d="M22.4314 41.6731C22.4314 40.3448 23.5082 39.2679 24.8366 39.2679H29.6471C30.9754 39.2679 32.0523 40.3448 32.0523 41.6731V44.0784H22.4314V41.6731Z" stroke="white" stroke-width="2.40523"/>
<path d="M20.0262 44.0782H34.4575" stroke="#D1B06B" stroke-width="2.40523" stroke-linecap="round"/>
<path d="M46.4837 39.268L35.5858 28.3701M37.7651 34.0372L41.2529 30.5494M28.1748 27.0629L34.2785 20.9592L38.6377 25.3183L32.5339 31.422L28.1748 27.0629ZM41.2534 24.4461C40.2903 25.4093 38.7288 25.4094 37.7658 24.4464L35.1503 21.8309C34.1873 20.8679 34.1874 19.3065 35.1506 18.3433C36.1137 17.3802 37.6752 17.3801 38.6382 18.3431L41.2537 20.9586C42.2167 21.9216 42.2165 23.483 41.2534 24.4461ZM31.6619 34.0377C30.6987 35.0008 29.1373 35.0009 28.1743 34.0379L25.5588 31.4225C24.5958 30.4595 24.5959 28.898 25.559 27.9349C26.5222 26.9717 28.0836 26.9716 29.0466 27.9346L31.6621 30.5501C32.6251 31.5131 32.625 33.0745 31.6619 34.0377Z" stroke="#D1B06B" stroke-width="2.40523" stroke-linecap="round"/>
</svg>
